<svg id="Layer_1" data-name="Layer 1" xmlns="http://www.w3.org/2000/svg" viewBox="0 0 95.91 152.64"><defs><style>.cls-1{fill:#02cab2;}</style></defs><title>logo</title><path d="M4.83,149.59a1.78,1.78,0,0,1-1.78-1.78V121.86a1.78,1.78,0,0,1,3.56,0V144L86.1,78.74H4.83a1.78,1.78,0,0,1-1.14-3.15L89.93,3.47a1.78,1.78,0,0,1,2.92,1.37V32.05a1.78,1.78,0,0,1-3.56,0V8.64L9.74,75.18H91.08a1.78,1.78,0,0,1,1.13,3.16L6,149.18A1.78,1.78,0,0,1,4.83,149.59Z"/><path class="cls-1" d="M91.08,3.05a1.78,1.78,0,0,1,1.78,1.78V32.05a1.78,1.78,0,0,1-3.56,0V8.64L9.74,75.18H91.08a1.78,1.78,0,0,1,1.13,3.16L6,149.18a1.78,1.78,0,0,1-2.91-1.38V121.86a1.78,1.78,0,0,1,3.56,0V144L86.1,78.74H4.83a1.78,1.78,0,0,1-1.14-3.15L89.93,3.47a1.78,1.78,0,0,1,1.14-.41m0-3.05A4.84,4.84,0,0,0,88,1.13L1.73,73.25a4.83,4.83,0,0,0,3.1,8.54H77.58L9.67,137.58V121.86a4.83,4.83,0,1,0-9.67,0v25.95a4.83,4.83,0,0,0,7.9,3.73L94.14,80.69a4.83,4.83,0,0,0-3.07-8.57H18.15L86.24,15.18V32.05a4.83,4.83,0,1,0,9.67,0V4.83A4.83,4.83,0,0,0,91.08,0h0Z"/></svg>